<?xml version="1.0" encoding="UTF-8"?><svg xmlns="http://www.w3.org/2000/svg" width="53.94mm" height="8.88mm" viewBox="0 0 152.89 25.18"><g id="Ebene_5"><rect width="152.89" height="25.18" fill="#fff"/></g><g id="Main"><rect x="49.71" y="6.3" width="18.82" height="12.68" fill="#164395"/><path d="M68.73,6.1h-19.22v13.07h19.22V6.1ZM68.33,18.78h-18.43V6.5h18.43v12.28Z" fill="#fff"/><polygon points="62.45 10.44 62.6 9.98 62.75 10.44 63.24 10.44 62.84 10.72 62.99 11.18 62.6 10.9 62.21 11.18 62.36 10.72 61.97 10.44 62.45 10.44" fill="#ffec07"/><polygon points="58.97 8.43 59.12 7.97 59.27 8.43 59.75 8.43 59.36 8.71 59.51 9.17 59.12 8.89 58.73 9.17 58.88 8.71 58.48 8.43 58.97 8.43" fill="#ffec07"/><polygon points="54.46 12.46 54.94 12.46 55.09 11.99 55.24 12.46 55.73 12.46 55.33 12.74 55.48 13.2 55.09 12.92 54.7 13.2 54.85 12.74 54.46 12.46" fill="#ffec07"/><polygon points="56.02 15.22 55.63 14.93 55.24 15.22 55.39 14.76 55 14.47 55.48 14.47 55.63 14.01 55.78 14.47 56.27 14.47 55.87 14.76 56.02 15.22" fill="#ffec07"/><polygon points="55.87 10.73 56.02 11.19 55.63 10.91 55.24 11.19 55.39 10.73 55 10.45 55.48 10.45 55.63 9.98 55.78 10.45 56.27 10.45 55.87 10.73" fill="#ffec07"/><polygon points="56.96 8.97 57.1 8.51 57.25 8.97 57.74 8.97 57.35 9.26 57.49 9.71 57.11 9.43 56.72 9.71 56.86 9.26 56.47 8.97 56.96 8.97" fill="#ffec07"/><polygon points="57.5 16.69 57.11 16.41 56.72 16.69 56.87 16.23 56.47 15.95 56.96 15.95 57.11 15.48 57.26 15.95 57.74 15.95 57.35 16.23 57.5 16.69" fill="#ffec07"/><polygon points="59.51 17.22 59.12 16.94 58.73 17.22 58.88 16.77 58.48 16.48 58.97 16.48 59.12 16.02 59.27 16.48 59.75 16.48 59.36 16.77 59.51 17.22" fill="#ffec07"/><polygon points="61.52 16.69 61.13 16.41 60.74 16.69 60.89 16.23 60.49 15.95 60.98 15.95 61.13 15.48 61.28 15.95 61.76 15.95 61.37 16.23 61.52 16.69" fill="#ffec07"/><polygon points="61.37 9.26 61.52 9.71 61.13 9.43 60.74 9.71 60.89 9.26 60.5 8.97 60.98 8.97 61.13 8.51 61.28 8.97 61.77 8.97 61.37 9.26" fill="#ffec07"/><polygon points="62.99 15.22 62.6 14.93 62.21 15.22 62.36 14.76 61.97 14.47 62.45 14.47 62.6 14.01 62.75 14.47 63.24 14.47 62.84 14.76 62.99 15.22" fill="#ffec07"/><polygon points="63.53 13.19 63.14 12.91 62.75 13.19 62.9 12.73 62.5 12.45 62.99 12.45 63.14 11.99 63.29 12.45 63.77 12.45 63.38 12.73 63.53 13.19" fill="#ffec07"/><path d="M74.04,10.5l.59.19c-.09.33-.24.58-.45.74-.21.16-.48.24-.81.24-.4,0-.74-.14-.99-.41-.26-.28-.39-.65-.39-1.13,0-.51.13-.9.39-1.18.26-.28.6-.42,1.03-.42.37,0,.67.11.91.33.14.13.24.32.31.56l-.61.15c-.04-.16-.11-.28-.22-.37-.11-.09-.25-.14-.42-.14-.23,0-.41.08-.55.24s-.21.42-.21.79c0,.38.07.66.21.82.14.16.32.24.54.24.16,0,.3-.05.42-.16.12-.1.2-.27.25-.49" fill="#01509e"/><path d="M75.62,10.52c0,.22.05.39.16.5.1.12.23.17.38.17s.28-.06.38-.17c.1-.12.15-.28.15-.51s-.05-.38-.15-.5c-.1-.12-.23-.17-.38-.17s-.28.06-.38.17c-.1.12-.16.28-.16.5M75.02,10.49c0-.19.05-.38.14-.56.1-.18.23-.32.4-.41.17-.1.37-.14.59-.14.33,0,.61.11.82.32.21.22.32.49.32.82s-.11.61-.32.83c-.21.22-.48.33-.81.33-.2,0-.39-.05-.58-.14-.18-.09-.32-.22-.42-.4-.1-.18-.14-.39-.14-.64" fill="#01509e"/><rect x="77.69" y="10.23" width="1.14" height=".58" fill="#01509e"/><path d="M78.91,9.42h.32v-.17c0-.19.02-.32.06-.41.04-.09.11-.17.22-.22.11-.06.24-.09.4-.09s.33.02.49.07l-.08.41c-.09-.02-.18-.03-.27-.03s-.14.02-.18.06c-.04.04-.05.11-.05.23v.16h.43v.46h-.43v1.74h-.58v-1.74h-.32v-.46Z" fill="#01509e"/><path d="M82.03,11.62v-.33c-.08.12-.19.21-.32.28-.13.07-.27.1-.41.1s-.28-.03-.4-.1c-.12-.06-.2-.16-.25-.27-.05-.12-.08-.28-.08-.49v-1.39h.58v1.01c0,.31.01.5.03.57.02.07.06.13.12.17.06.04.13.06.22.06.1,0,.19-.03.27-.08.08-.05.13-.12.16-.2.03-.08.04-.28.04-.59v-.93h.58v2.2h-.54Z" fill="#01509e"/><path d="M85.17,11.62h-.58v-1.12c0-.24-.01-.39-.04-.46-.03-.07-.07-.12-.12-.16-.06-.04-.12-.06-.2-.06-.1,0-.19.03-.27.08-.08.06-.13.13-.16.22-.03.09-.04.26-.04.51v1h-.58v-2.2h.54v.32c.19-.25.43-.37.72-.37.13,0,.25.02.35.07.11.05.19.11.24.18.05.07.09.15.11.24.02.09.03.22.03.39v1.37Z" fill="#01509e"/><path d="M86.23,10.47c0,.23.03.41.1.51.09.15.23.23.39.23.13,0,.25-.06.34-.17.09-.11.14-.28.14-.51,0-.25-.05-.43-.14-.55-.09-.11-.21-.17-.35-.17s-.25.05-.35.16-.14.27-.14.49M87.78,11.62h-.54v-.32c-.09.13-.2.22-.32.28s-.25.09-.37.09c-.25,0-.47-.1-.65-.31s-.27-.49-.27-.85.09-.66.26-.85c.18-.19.4-.29.67-.29.25,0,.46.1.64.31v-1.09h.58v3.04Z" fill="#01509e"/><path d="M89.66,10.33c0-.17-.05-.3-.13-.38-.08-.09-.18-.13-.3-.13-.13,0-.23.05-.31.14-.08.09-.12.22-.12.38h.87ZM89.63,10.92l.58.1c-.07.21-.19.37-.35.49-.16.11-.36.17-.6.17-.38,0-.67-.12-.85-.38-.15-.2-.22-.45-.22-.76,0-.36.1-.65.29-.86.19-.21.43-.31.72-.31.33,0,.59.11.77.32.19.22.28.55.27.99h-1.46c0,.17.05.31.14.4.09.1.2.14.34.14.09,0,.17-.02.23-.07.06-.05.11-.13.14-.24" fill="#01509e"/><path d="M91.18,10.47c0,.23.03.41.1.51.09.15.23.23.39.23.13,0,.25-.06.34-.17.09-.11.14-.28.14-.51,0-.25-.05-.43-.14-.55-.09-.11-.21-.17-.35-.17s-.25.05-.35.16-.14.27-.14.49M92.73,11.62h-.54v-.32c-.09.13-.2.22-.32.28s-.25.09-.37.09c-.25,0-.47-.1-.65-.31-.18-.2-.27-.49-.27-.85s.09-.66.26-.85c.18-.19.4-.29.67-.29.25,0,.46.1.64.31v-1.09h.58v3.04Z" fill="#01509e"/><path d="M95.04,10.47c0,.23.04.4.11.51.1.15.23.23.4.23.13,0,.24-.05.33-.16s.14-.28.14-.52c0-.25-.05-.43-.14-.54-.09-.11-.21-.17-.35-.17s-.26.05-.35.16c-.09.11-.14.27-.14.49M94.46,11.62v-3.04h.58v1.09c.18-.2.39-.31.64-.31.27,0,.49.1.67.29.18.19.26.47.26.84s-.09.67-.27.87c-.18.2-.4.3-.65.3-.13,0-.25-.03-.37-.09-.12-.06-.23-.16-.32-.28v.32h-.54Z" fill="#01509e"/><path d="M96.8,9.42h.62l.53,1.56.51-1.56h.6l-.78,2.12-.14.38c-.05.13-.1.23-.15.29-.05.07-.1.12-.16.16-.06.04-.13.08-.22.1-.09.02-.19.04-.3.04s-.22-.01-.33-.04l-.05-.46c.09.02.17.03.25.03.14,0,.24-.04.3-.12.07-.08.11-.18.15-.3l-.84-2.21Z" fill="#01509e"/><path d="M73.23,14.51v.46h-.4v.89c0,.18,0,.28.01.31l.05.07s.06.03.1.03c.05,0,.13-.02.23-.06l.05.45c-.14.06-.29.09-.46.09-.1,0-.2-.02-.28-.05-.08-.04-.15-.08-.19-.14-.04-.06-.07-.13-.08-.23-.01-.07-.02-.2-.02-.41v-.96h-.27v-.46h.27v-.44l.58-.34v.78h.4Z" fill="#01509e"/><path d="M74.22,13.67v1.12c.19-.22.41-.33.67-.33.13,0,.25.02.36.07.11.05.19.11.24.19.05.08.09.16.11.26.02.09.03.24.03.44v1.29h-.58v-1.16c0-.23-.01-.38-.03-.44-.02-.06-.06-.11-.12-.15-.06-.04-.13-.05-.21-.05-.1,0-.18.02-.26.07s-.13.12-.17.21c-.04.09-.05.23-.05.42v1.1h-.58v-3.04h.58Z" fill="#01509e"/><path d="M77.53,15.42c0-.17-.05-.3-.13-.38-.08-.09-.18-.13-.3-.13-.13,0-.23.05-.31.14-.08.09-.12.22-.12.38h.87ZM77.5,16.01l.58.1c-.07.21-.19.37-.35.49-.16.11-.36.17-.6.17-.38,0-.67-.12-.85-.38-.14-.2-.22-.45-.22-.76,0-.36.1-.65.29-.86.19-.21.43-.31.72-.31.33,0,.59.11.77.32.19.22.28.55.27.99h-1.46c0,.17.05.31.14.4.09.1.2.14.34.14.09,0,.17-.02.23-.07.06-.05.11-.13.14-.24" fill="#01509e"/><polygon points="79.77 16.71 79.77 13.67 82.02 13.67 82.02 14.19 80.38 14.19 80.38 14.86 81.91 14.86 81.91 15.37 80.38 15.37 80.38 16.2 82.08 16.2 82.08 16.71 79.77 16.71" fill="#01509e"/><path d="M84.04,16.71v-.33c-.08.12-.19.21-.32.28-.13.07-.27.1-.41.1s-.28-.03-.4-.1c-.12-.06-.2-.16-.25-.27-.05-.12-.08-.28-.08-.49v-1.39h.58v1.01c0,.31.01.5.03.57.02.07.06.13.12.17.06.04.13.06.22.06.1,0,.19-.03.27-.08.08-.05.13-.12.16-.2.03-.08.04-.28.04-.59v-.93h.58v2.2h-.54Z" fill="#01509e"/><path d="M85.75,16.71h-.58v-2.2h.54v.31c.09-.15.18-.25.25-.29.07-.05.16-.07.25-.07.13,0,.26.04.38.11l-.18.51c-.1-.06-.19-.1-.27-.1s-.15.02-.21.07c-.06.04-.1.13-.13.24-.03.12-.05.36-.05.74v.68Z" fill="#01509e"/><path d="M87.3,15.61c0,.22.05.39.16.5.1.12.23.17.38.17s.28-.06.38-.17c.1-.12.15-.28.15-.51s-.05-.38-.15-.5c-.1-.12-.23-.17-.38-.17s-.28.06-.38.17c-.1.12-.16.28-.16.5M86.71,15.58c0-.19.05-.38.14-.56.1-.18.23-.32.4-.41.17-.1.37-.14.59-.14.33,0,.61.11.82.32.21.22.32.49.32.82s-.11.61-.32.83c-.21.22-.49.33-.81.33-.2,0-.39-.05-.58-.14-.18-.09-.32-.22-.42-.4-.1-.18-.14-.39-.14-.64" fill="#01509e"/><path d="M89.99,15.57c0,.25.05.43.15.55.1.12.22.18.36.18s.25-.05.34-.16c.09-.11.13-.29.13-.53,0-.23-.05-.4-.14-.51-.09-.11-.21-.17-.34-.17s-.26.05-.35.16-.14.27-.14.49M89.42,14.51h.54v.32c.07-.11.17-.2.29-.27.12-.07.25-.1.4-.1.26,0,.47.1.65.3.18.2.27.48.27.84s-.09.65-.27.86c-.18.2-.4.31-.65.31-.12,0-.23-.02-.33-.07-.1-.05-.2-.13-.31-.25v1.11h-.58v-3.04Z" fill="#01509e"/><path d="M93.33,15.42c0-.17-.05-.3-.13-.38-.08-.09-.18-.13-.3-.13-.13,0-.23.05-.31.14-.08.09-.12.22-.12.38h.87ZM93.3,16.01l.58.1c-.07.21-.19.37-.35.49-.16.11-.36.17-.6.17-.38,0-.67-.12-.85-.38-.14-.2-.22-.45-.22-.76,0-.36.1-.65.29-.86.19-.21.43-.31.72-.31.33,0,.59.11.77.32.19.22.28.55.27.99h-1.46c0,.17.05.31.14.4.09.1.2.14.34.14.09,0,.17-.02.23-.07.06-.05.11-.13.14-.24" fill="#01509e"/><path d="M95.6,15.65c-.07.02-.19.05-.35.09-.16.03-.27.07-.32.1-.08.05-.11.12-.11.21s.03.15.09.21c.06.06.14.09.23.09.1,0,.21-.03.3-.1.07-.05.12-.12.14-.19.02-.05.02-.14.02-.28v-.12ZM94.82,15.18l-.53-.1c.06-.21.16-.37.31-.47.15-.1.36-.15.65-.15.26,0,.45.03.58.09.13.06.22.14.27.23.05.09.08.27.08.52v.68c0,.19,0,.34.02.43.02.09.05.19.1.3h-.58s-.03-.1-.06-.17c0-.03-.02-.06-.02-.07-.1.1-.21.17-.32.22-.11.05-.23.07-.36.07-.23,0-.41-.06-.54-.18-.13-.12-.2-.28-.2-.47,0-.12.03-.24.09-.33.06-.1.14-.17.25-.22.11-.05.26-.1.46-.14.27-.05.46-.1.57-.14v-.06c0-.11-.03-.19-.08-.24-.06-.05-.16-.07-.31-.07-.1,0-.18.02-.24.06-.06.04-.1.11-.14.21" fill="#01509e"/><path d="M98.75,16.71h-.58v-1.12c0-.24-.01-.39-.04-.46-.03-.07-.07-.12-.12-.16-.06-.04-.12-.06-.2-.06-.1,0-.19.03-.27.08-.08.06-.13.13-.16.22-.03.09-.04.26-.04.51v1h-.58v-2.2h.54v.32c.19-.25.43-.37.72-.37.13,0,.25.02.35.07.11.05.19.11.24.18.05.07.09.15.11.24.02.09.03.22.03.39v1.37Z" fill="#01509e"/><path d="M100.52,13.67h.61v1.65c0,.26,0,.43.02.51.03.12.09.22.19.3.1.08.23.11.41.11s.31-.04.39-.11c.09-.07.14-.16.16-.26s.03-.28.03-.52v-1.68h.61v1.6c0,.36-.02.62-.05.77-.03.15-.09.28-.18.38-.09.1-.21.19-.36.25-.15.06-.34.09-.58.09-.29,0-.51-.03-.66-.1-.15-.07-.27-.15-.36-.26-.09-.11-.14-.22-.17-.34-.04-.17-.06-.43-.06-.77v-1.62Z" fill="#01509e"/><path d="M105.58,16.71h-.58v-1.12c0-.24-.01-.39-.04-.46-.03-.07-.07-.12-.12-.16-.06-.04-.12-.06-.2-.06-.1,0-.19.03-.27.08-.08.06-.13.13-.16.22-.03.09-.04.26-.04.51v1h-.58v-2.2h.54v.32c.19-.25.43-.37.72-.37.13,0,.25.02.35.07.11.05.19.11.24.18.05.07.09.15.11.24.02.09.03.22.03.39v1.37Z" fill="#01509e"/><path d="M106.17,14.51h.58v2.2h-.58v-2.2ZM106.17,13.67h.58v.54h-.58v-.54Z" fill="#01509e"/><path d="M107.81,15.61c0,.22.05.39.16.5.1.12.23.17.38.17s.28-.06.38-.17c.1-.12.15-.28.15-.51s-.05-.38-.15-.5c-.1-.12-.23-.17-.38-.17s-.28.06-.38.17c-.1.12-.16.28-.16.5M107.22,15.58c0-.19.05-.38.14-.56.1-.18.23-.32.4-.41s.37-.14.59-.14c.33,0,.61.11.82.32.21.22.32.49.32.82s-.11.61-.32.83c-.21.22-.49.33-.81.33-.2,0-.39-.05-.58-.14-.18-.09-.32-.22-.42-.4-.1-.18-.14-.39-.14-.64" fill="#01509e"/><path d="M111.95,16.71h-.58v-1.12c0-.24-.01-.39-.04-.46-.03-.07-.07-.12-.12-.16-.06-.04-.12-.06-.2-.06-.1,0-.19.03-.27.08-.08.06-.14.13-.16.22-.03.09-.04.26-.04.51v1h-.58v-2.2h.54v.32c.19-.25.43-.37.72-.37.13,0,.25.02.35.07.11.05.19.11.24.18.05.07.09.15.11.24.02.09.03.22.03.39v1.37Z" fill="#01509e"/><path d="M34.88,9.12c.53,0,.89.34,1.03.85.47.04.94.09,1.39.14-.19-1.18-.97-2.15-2.42-2.15-1.16,0-2.04.74-2.37,1.75.47.03.93.06,1.38.09.18-.43.52-.69.99-.69" fill="#a4acd8"/><path d="M32.37,10.62c0,1.55,1.13,2.62,2.65,2.62.92,0,1.6-.36,2.07-.95l-.82-.73c-.4.37-.75.52-1.23.52-.64,0-1.1-.34-1.24-.99h3.53c0-.13.02-.26.02-.38,0-.21-.02-.41-.05-.61-.46-.05-.92-.1-1.39-.14.02.07.03.15.04.22h-2.17c.02-.14.06-.27.11-.39-.46-.03-.92-.06-1.38-.09-.09.28-.14.58-.14.89v.02Z" fill="#164395"/><path d="M7.79,6.5h-1.46v4.48c.47-.09.96-.18,1.46-.26v-4.22Z" fill="#a4acd8"/><path d="M16.7,9.29h1.19v-1.23h-1.19v-1.3h-1.44v1.3h-.61v1.23h.61v.56c.47-.04.95-.07,1.44-.1v-.45Z" fill="#a4acd8"/><path d="M21.21,9.12c.35,0,.63.15.81.4.48-.01.96-.02,1.44-.02-.33-.88-1.07-1.53-2.26-1.53-1.12,0-1.99.69-2.34,1.66.49-.02.98-.04,1.48-.06.19-.28.48-.45.85-.45" fill="#a4acd8"/><path d="M27.32,9.51c.13-.03.27-.04.42-.04h.08v-1.5c-.85-.04-1.32.42-1.62,1.12v-1.02h-1.44v1.43h.08c.84,0,1.66,0,2.49.02" fill="#a4acd8"/><path d="M31.69,9.47h.08v-1.5c-.85-.04-1.32.42-1.62,1.12v-1.02h-1.44v1.49c.75.02,1.49.05,2.22.08.22-.11.47-.16.76-.16" fill="#a4acd8"/><path d="M39.44,10.35v-.02c0-.69.53-1.17,1.23-1.17s1.24.48,1.24,1.17v.02c0,.13-.02.26-.06.37.5.08,1,.17,1.48.26v-2.92h-1.44v.66c-.39-.43-.85-.76-1.64-.76-1.13,0-2.18.8-2.25,2.23.48.06.96.11,1.43.18v-.02Z" fill="#a4acd8"/><path d="M11.11,9.3c.1-.05.31-.09.41-.09s.31.04.41.09c.37.17.53.43.58.8.46-.05.92-.09,1.39-.14-.16-.74-.6-1.36-1.29-1.71-.31-.16-.68-.29-1.09-.29s-.77.13-1.09.29c-.85.43-1.33,1.29-1.35,2.27.47-.07.95-.13,1.44-.2,0-.49.15-.82.6-1.03" fill="#a4acd8"/><path d="M7.79,13.13v-2.4c-.5.08-.98.17-1.46.26v2.15h1.46Z" fill="#164395"/><path d="M16.74,13.21c.48,0,.83-.11,1.13-.29v-1.15c-.21.11-.44.18-.71.18-.32,0-.46-.16-.46-.49v-1.71c-.48.03-.96.07-1.44.1v1.85c0,1.17.6,1.52,1.48,1.52" fill="#164395"/><path d="M18.71,10.62c0,1.55,1.13,2.62,2.65,2.62.92,0,1.6-.36,2.07-.95l-.82-.73c-.4.37-.75.52-1.23.52-.64,0-1.1-.34-1.24-.99h3.53c0-.13.02-.26.02-.38,0-.43-.07-.85-.21-1.22-.48,0-.96.01-1.44.02.13.18.22.41.26.68h-2.17c.04-.25.13-.46.24-.63-.5.02-.99.04-1.48.06-.11.3-.17.63-.17.98v.02Z" fill="#164395"/><path d="M26.19,13.13v-1.87c0-1.02.42-1.59,1.13-1.74-.82-.02-1.65-.02-2.49-.02h-.08v3.64h1.44Z" fill="#164395"/><path d="M30.15,13.13v-1.87c0-.84.29-1.38.78-1.63-.73-.03-1.47-.06-2.22-.08v3.58h1.44Z" fill="#164395"/><path d="M38,10.35c0,1.5,1.07,2.37,2.25,2.37.77,0,1.23-.31,1.66-.82v.25c0,.91-.46,1.38-1.45,1.38-.67,0-1.19-.17-1.71-.46l-.49,1.08c.64.34,1.42.53,2.24.53.98,0,1.71-.21,2.19-.68.43-.43.64-1.09.64-2v-1c-.48-.09-.97-.18-1.48-.26-.16.48-.62.8-1.18.8-.69,0-1.22-.46-1.23-1.16-.47-.06-.95-.12-1.43-.18,0,.05,0,.09,0,.14v.02Z" fill="#164395"/><path d="M12.53,10.34v2.79h1.44v-2.53c0-.22-.02-.44-.07-.64-.47.04-.93.09-1.39.14.01.08.02.16.02.24" fill="#164395"/><path d="M9.08,10.62v2.51h1.44v-2.79h0c-.49.05-.97.12-1.44.18v.08s0,.02,0,.02Z" fill="#164395"/><path d="M41.79,18.19v-.68h1.31v-.53h-1.31v-.63h1.48v-.54h-2.13v2.92h2.18v-.54h-1.53ZM39.55,17.38h-.53v-1.01h.53c.4,0,.6.19.6.51s-.2.51-.6.51M39.59,15.81h-1.22v2.92h.65v-.81h.57c.75,0,1.22-.4,1.22-1.05s-.47-1.06-1.22-1.06M36.45,18.21c-.5,0-.88-.38-.88-.94s.38-.93.88-.93.88.38.88.93-.38.94-.88.94M36.45,18.78c.89,0,1.54-.64,1.54-1.51s-.66-1.51-1.54-1.51-1.54.64-1.54,1.51.65,1.51,1.54,1.51M34.04,16.87c0,.32-.2.51-.6.51h-.53v-1.02h.53c.4,0,.6.19.6.51M34.76,18.73l-.63-.94c.37-.16.58-.48.58-.92,0-.66-.47-1.06-1.22-1.06h-1.22v2.92h.65v-.81h.6l.54.81h.7ZM30.46,18.78c.8,0,1.28-.48,1.28-1.33v-1.64h-.64v1.61c0,.55-.23.78-.63.78s-.63-.23-.63-.78v-1.61h-.65v1.64c0,.86.48,1.33,1.28,1.33M27.29,18.19v-.68h1.31v-.53h-1.31v-.63h1.48v-.54h-2.13v2.92h2.18v-.54h-1.53ZM23.31,18.73h2.07v-.55h-1.41v-2.37h-.65v2.92ZM21.09,17.6l.45-1.12.45,1.12h-.89ZM22.44,18.73h.68l-1.26-2.92h-.64l-1.26,2.92h.67l.25-.63h1.31l.25.63ZM19.17,16.87c0,.32-.2.51-.6.51h-.53v-1.02h.53c.4,0,.6.19.6.51M19.88,18.73l-.63-.94c.37-.16.58-.48.58-.92,0-.66-.47-1.06-1.22-1.06h-1.22v2.92h.65v-.81h.6l.54.81h.7ZM15.62,18.73h.65v-2.37h.9v-.55h-2.46v.55h.9v2.37ZM13.86,15.81v1.77l-1.4-1.77h-.54v2.92h.64v-1.77l1.41,1.77h.54v-2.92h-.64ZM9.96,18.19v-.68h1.31v-.53h-1.31v-.63h1.48v-.54h-2.13v2.92h2.18v-.54h-1.54ZM7.86,18.78c.49,0,.9-.18,1.16-.52l-.42-.4c-.19.23-.43.35-.71.35-.53,0-.9-.38-.9-.94s.37-.93.9-.93c.28,0,.52.12.71.34l.42-.4c-.27-.33-.67-.52-1.16-.52-.88,0-1.53.63-1.53,1.51s.65,1.51,1.53,1.51" fill="#164395"/></g><g id="Ebene_2"><path d="M128.24,17.61c-.91.03-.38.08-1.43.1-1.97.05-9.52.33-10.5.7-.12.05-.2,0-.24-.14-.02,0-.04-.02-.06-.02-.07,0-.15.07-.19.11-.04.04.08.08.08.08l.06.04s.06.1.06.15c0,.05-.05,0-.08-.03-.03-.03-.19-.16-.24-.2-.05-.04-.11,0-.14-.02-.03-.02-.14-.06-.18-.06-.05,0-.21.05-.25.08-.04.02-.06.14-.09.16-.04.03-.05.03-.07.09-.02.06-.19.23-.27.29-.08.06-.24.01-.24.01,0,0,.06-.16.08-.19.02-.03.08-.12.08-.12,0,0-.05-.06-.05-.09,0-.02-.16.03-.16.03,0,0-.64-.04-.7-.07-.06-.03-.12-.1-.13-.14,0-.04,0-.15,0-.15l.04-.12.06-.04.04-.03s-.05-.11-.05-.15c0-.04-.1-.02-.16-.04-.06-.02-.02-.11-.02-.11l-.05-.11s.16-.04.18-.04c.02,0,.05-.07.1-.06.04,0,.03-.12.03-.12l.54-.14s-.59-.02-.58-.08c0-.06-.02-.1-.05-.11-.04-.02-.08-.07-.08-.13,0-.06.06-.03.06-.06,0-.02.6-.06.66-.03.05.03.11-.03.15-.07.04-.03.16-.03.17,0,0,.04.13.06.13.06,0,0,.06-.11.1-.12.04,0,.1-.12.1-.12v-.11s0-.08.03-.11c.03-.02.07-.07.11-.09.04-.02,0,.14,0,.14,0,0,.21.27.23.27.02,0,.06.06.06.06,0,0,.02.12.02.15,0,.02.13,0,.13,0,0,0,.07-.12.04-.15s-.05-.11,0-.17c.04-.06.14-.1.15-.16.01-.07-.04-.17-.04-.17l.07-.02v.11s.14.08.14.08c0,0,.15-.05.16-.08.01-.03.1.16.15.19.05.02.04-.09.04-.09l.03-.15s-.07-.04-.08-.13c0-.09.06-.05.12,0,0,0,.02.01.03.02.03-.15.06-.3.1-.45-.01-.03-.08-.03-.13-.03-.06,0-.1.1-.16.1-.05,0-.07-.11-.06-.14,0-.02-.08-.03-.13-.05-.05-.02-.1-.1-.11-.14,0-.04.04-.12.04-.12,0,0,.02-.15.02-.18,0-.02.1-.05.1-.05l-.13-.06s-.19-.14-.23-.14c-.04,0-.13.03-.13.03,0,0-.02-.05-.04-.06-.02,0-.03.08-.05.08-.02,0-.08-.06-.08-.09,0-.03-.15-.04-.21-.04-.06,0-.08.14-.07.2,0,.06-.39.02-.46,0-.07-.02.02-.51.01-.59,0-.07.15-.38.19-.44.04-.06.01-.12.01-.12l.17-.19.12-.21s.01-.15.06-.14c.04,0-.02-.22-.02-.22,0,0,.08,0,.13,0,.04,0,.12.04.14.06.02.02.04-.05.07-.05.03,0,.06-.07.06-.07l.03-.21s-.08-.14-.09-.2c0-.06.05-.1.05-.1l.04-.07s.16.04.18.05c.02,0,.04-.1.04-.1,0,0,.04-.06.09-.07.04,0,.02-.07.02-.12,0-.05.11-.05.11-.05l.12-.12-.02-.14s-.08-.07-.09-.1c-.02-.03.06-.11.06-.13,0-.02.03-.09.07-.08s.03-.07.02-.09c0-.02.04-.08.04-.12,0-.03-.07-.06-.12-.1-.08-.01-.21-.02-.21-.02l-.12-.04s.09-.18.07-.22c-.02-.04-.17-.1-.17-.1l.16-.21s.31-.07.31-.12c0-.06-.04-.18-.04-.18l.08-.04s-.21-.02-.21-.04c0-.02.18-.23.18-.23v-.08l.09-.04-.02-.15s.06-.16.09-.16c.03,0,.11.1.11.1h.05s.06-.06.06-.06l.06-.05s.09.02.13.01c.04,0,.1-.06.1-.08,0-.02.1-.07.14-.05.04.02-.17-.14-.17-.14,0,0-.06-.08-.08-.08-.02,0-.11-.08-.1-.14.01-.06-.08-.02-.12-.01-.04,0-.11-.05-.11-.05l.09-.08.08-.15s-.04-.11-.06-.11c-.02,0-.03-.11-.03-.11l.07-.11.05.05s.11,0,.16.02c.05.02.09-.15.09-.15v-.1s.11,0,.18-.02c.07,0,.1-.06.1-.06,0,0,.08-.05.13-.04.04,0,.05-.05.04-.09-.02-.04.14-.06.18-.06.04,0,.1,0,.12.05.02.05.14.09.14.09l.14.13s.04-.07.07-.07c.03,0,.05.1.05.12,0,.02.09.08.12.08.03,0-.04.11-.04.11l.18.1s.17.05.19.05c.02,0,.09.23.12.23.02,0,.01-.15.01-.15,0,0-.06-.14-.05-.18,0-.04-.03-.11-.1-.13-.07-.02.01-.11.01-.11,0,0,.24-.12.27-.13.03,0,.58-.29.65-.33.07-.04.09-.23.09-.23,0,0,.16-.1.22-.14,0-.01-.01-.02-.03-.03.09-.08.32-.1.3-.23.23-.14,1.76-.09,2.33-.13.19-.01.25-.02.48-.02.23,0,.44-.06.63-.06.33,0,.66.06.93-.03.15-.01.14.03.26.03,2.98-.12-1.64-.18,1.47-.28.89-.01,1.78-.11,2.32-.13.65.02,2.02.14,2.15.11.44,0-.82-.05-.41,0,.14,0,.11-.07.22-.08.21,0,.26.04.44.05.14,0,.14,0,.22-.02.1,0-.02,0,.08,0,.37-.01.09-.04.48.07.34-.08.74-.03,1.18-.06.05.04-.12,0-.07.05.25.03.2-.06.33-.08.2,0,.56-.05.56-.05,0,0,.04-.02.05-.01.39-.06,1.1-.07,1.81-.02,1.22-.06-1.47-.02.06-.03.24,0-1.62.03-1.38.04.45,0,.94-.03,1.41-.03.6,0-.87.02-.27.02,2.09,0-.45-.02,1.56.01.11,0,.13.05.22.07.81.03,1.62-.02,2.27.05-.11,0-.42.02-.76.03l6.7.28v-.02s.01,0,.01,0c.01.01.02.02.02.02h0s.27,0,.27.11c0,.11.03.16.05.24.02.07.15.25.16.31,0,.07.13.25.13.34,0,.08.08.24.09.31.02.07-.06.18-.14.22-.08.04-.12.26-.14.32-.02.06.2.08.2.08,0,0,.09.09.11.11.01.02.03.28.01.35-.02.07.08.11.09.16.02.05,0,.06.04.11s.18.22.22.28c.04.07.02.12.02.15,0,.04.11.19.11.26,0,.07-.14.13-.2.18-.05.05-.22.39-.26.5-.04.12-.07.37-.06.48.01.11.03.2.03.27,0,.07-.04.04-.06.11-.02.07-.07.34-.09.4-.02.06.03.18.07.23.04.04.07.11.11.17.04.06.12.01.12.01,0,0,.09.03.12.06.04.03,0,.15,0,.2,0,.05-.16.04-.19.05-.03,0-.15.21-.17.27-.02.06,0,.15-.03.26-.02.11-.09.25-.13.3-.04.05-.04.32-.08.36-.05.04-.05.24-.07.29-.03.05-.08.12-.17.07-.08-.05-.07.18-.07.18,0,0-.1-.03-.13-.03-.03,0-.09.05-.15.04-.06-.01-.11.03-.15.07-.04.05-.13,0-.16-.02-.03-.02-.04.02-.07.04-.03.02-.11.16-.16.16-.05,0-.07,0-.09.01-.03,0-.04.13-.05.16,0,.03.05.15.05.2,0,.05.07.06.06.09,0,.02,0,.07.06.12.05.05.11.03.16.03.05,0-.04.09-.08.09-.03,0-.05.09-.05.09,0,0,.09.17.02.21-.07.03-.1-.06-.1-.06,0,0-.13-.11-.19-.11-.06,0-.11.01-.16-.03-.05-.04-.09.08-.09.08l-.06-.06s-.06.06-.06.1c0,.04-.09-.05-.14-.07-.05-.02-.09.05-.11.03-.03-.01-.1-.03-.1-.03,0,0-.09.02-.11.03-.02.02-.13-.08-.13-.08,0,0-.07.08-.09.1-.02.02-.12-.01-.17,0-.05,0-.06.16-.1.2-.04.04-.17-.11-.17-.17,0-.05-.08-.02-.16,0-.08.01-.04.14-.02.2.02.06,0,.18,0,.18,0,0,.02.1.08.11,0,0,.12.06.12.11,0,.06.05.06.07.06.02,0,.06.12.08.17.02.05.07.18.1.2.03.03.12-.01.16.11.01.03.11.17.16.17.05,0,.1.08.11.12,0,.04.13.04.21.07.08.03.05.18.05.18,0,0,.2.16.24.18.04.02-.03.07-.07.08-.03,0-.16-.11-.16-.11,0,0-.19-.16-.21-.19-.02-.04-.14-.01-.2,0-.05,0-.05-.07,0-.1.05-.03-.25.07-.34.09-.09.02-.11-.16-.14-.2-.02-.04-.1,0-.18-.04-.03-.01-.07-.05-.12-.09-.08,0-.16,0-.25,0,0,.04.21.01.26.04-.08.06-.25.08-.26.16-1.03.03-.8-.05-1.75,0,.04.04.22.03.3.05-.2.05.29.02.15-.04.11-.03-.75.01-.56,0,0-.06.75-.05.67-.03-.11,0-.13-.03-.22-.04-.6-.05-1.21,0-1.85-.06-.52-.04,1.89-.18,1.21-.21-.24,0-.48.02-.63-.04-.78,0-1.6-.02-2.48-.04-.45-.01-.89-.06-1.33-.06-.15,0-.3.02-.44.02-.11,0-.2-.03-.3-.04-.36-.02-.64,0-1.07,0-.6.01.86-.03.23-.05-.3,0,1.46.02,1.16.02-1.74-.01,1.25-.02-.49-.02-1.93,0,.55.03-1.26.05h0c-.38.03-.76.06-1.07.08-.18.01-1.09.06-1.59.08l-2.75.34Z" fill="#9ac440" fill-rule="evenodd"/></g><g id="Ebene_4"><text transform="translate(119.74 13.41)" fill="#fff" font-family="Montserrat-SemiBold, Montserrat" font-size="4.74" font-weight="600" letter-spacing="-.05em"><tspan x="0" y="0">Clim4Cast</tspan></text></g></svg>