<svg viewBox="0 0 75 11" xmlns="http://www.w3.org/2000/svg" fill-rule="evenodd" clip-rule="evenodd" stroke-linejoin="round" stroke-miterlimit="1.41"><g fill-rule="nonzero"><path d="M2.42 2.13v2.76h4.85v1.95H2.43v3.82H0V.18h7.92v1.94h-5.5zM10.16.18h2.42v10.48h-2.42zM22.35 10.66l-2.02-2.92H18.1v2.92h-2.43V.18h4.54c.92 0 1.73.15 2.41.46.69.31 1.21.75 1.58 1.32.37.57.56 1.24.56 2.02S24.57 5.43 24.2 6c-.38.57-.91 1-1.6 1.3l2.35 3.37h-2.6zm-.05-6.68c0-.59-.19-1.04-.57-1.35-.38-.32-.93-.47-1.66-.47H18.1V5.8h1.97c.73 0 1.28-.16 1.66-.48.38-.32.57-.77.57-1.35zM35.38 8.71v1.95h-8.1V.18h7.91v1.94h-5.5V4.4h4.86v1.89h-4.87V8.7h5.7z" fill="#464646"/><path d="M44.59 10.66l-2.02-2.92h-2.23v2.92h-2.42V.18h4.53c.93 0 1.73.15 2.42.46.68.31 1.2.75 1.58 1.32.37.57.55 1.24.55 2.02S46.8 5.43 46.44 6c-.38.57-.9 1-1.6 1.3l2.35 3.37h-2.6zm-.04-6.68c0-.59-.2-1.04-.57-1.35-.38-.32-.94-.47-1.66-.47h-1.98V5.8h1.97c.73 0 1.29-.16 1.67-.48.38-.32.57-.77.57-1.35zM49.05.18h2.79l-.47 6.84h-1.85L49.05.18zm1.4 10.6c-.42 0-.76-.14-1.03-.4A1.29 1.29 0 0 1 49 9.4c0-.38.13-.7.4-.95s.61-.38 1.03-.38c.42 0 .77.13 1.04.38.27.26.4.57.4.95s-.14.7-.41.97c-.28.26-.62.4-1.03.4zM57.88 10.84c-.83 0-1.63-.12-2.4-.34a5.65 5.65 0 0 1-1.86-.88l.82-1.82a6.04 6.04 0 0 0 3.46 1.1c.69-.01 1.2-.11 1.52-.32.33-.2.5-.47.5-.81 0-.25-.1-.46-.3-.62-.19-.17-.44-.3-.74-.4-.3-.1-.72-.21-1.24-.33-.8-.19-1.45-.38-1.96-.57-.5-.19-.94-.5-1.3-.91a2.47 2.47 0 0 1-.55-1.68c0-.6.16-1.16.49-1.65.33-.5.83-.89 1.49-1.18A6.08 6.08 0 0 1 58.24 0c.67 0 1.32.08 1.96.24.64.16 1.2.39 1.68.69l-.75 1.84a5.84 5.84 0 0 0-2.9-.82c-.68 0-1.18.1-1.5.33a1 1 0 0 0-.5.86c0 .36.2.63.57.8.37.18.94.35 1.71.52.8.19 1.45.38 1.96.57.51.19.95.49 1.31.9.37.4.55.96.55 1.66 0 .6-.17 1.14-.5 1.64-.34.5-.84.88-1.5 1.17-.68.3-1.49.44-2.45.44zM68.4 6.54L67 8.01v2.65h-2.41V.18h2.4v4.9l4.65-4.9h2.7l-4.35 4.67 4.6 5.8h-2.83L68.4 6.55z" fill="#d00"/></g></svg>